<svg width="30" height="30" viewBox="0 0 30 30" fill="none" xmlns="http://www.w3.org/2000/svg">
<path d="M12.6467 27.607H6.26087C4.19168 27.5998 2.514 26.0166 2.4988 24.0568V12.0255C2.50286 11.3694 2.81281 10.7486 3.34561 10.3293L4.47007 9.54037C4.88058 9.1261 4.92232 8.49395 4.56951 8.03446C4.21669 7.57496 3.5689 7.41781 3.02632 7.66008L1.8741 8.47531C0.711819 9.32712 0.0220874 10.6337 0 12.0255V24.0699C0.00763454 27.342 2.80625 29.9928 6.26087 30.0001H12.6467C13.3367 30.0001 13.8961 29.4702 13.8961 28.8167C13.8961 28.1631 13.3367 27.6333 12.6467 27.6333V27.607Z" fill="white"/>
<path d="M30 11.9989C29.9854 10.6173 29.3181 9.31463 28.1814 8.44872L18.5888 1.20368C16.4808 -0.401226 13.478 -0.401226 11.3701 1.20368L8.32986 3.29435C7.75868 3.68286 7.62816 4.4364 8.03834 4.97741C8.44852 5.51842 9.24407 5.64205 9.81526 5.25354L12.8971 3.07082C14.1067 2.12757 15.8521 2.12757 17.0618 3.07082L26.6544 10.3159C27.2065 10.7304 27.5327 11.358 27.5428 12.0252V24.0696C27.5428 26.0303 25.8647 27.6198 23.7946 27.6198H20.9488C20.6574 27.6198 20.4213 27.3961 20.4213 27.1201V21.6897C20.4213 19.9592 18.9443 18.5543 17.1173 18.5471H12.9526C12.0727 18.5471 11.2288 18.8782 10.6066 19.4675C9.98435 20.0569 9.63479 20.8562 9.63479 21.6897V23.7672C9.63479 24.4207 10.1942 24.9506 10.8842 24.9506C11.5742 24.9506 12.1336 24.4207 12.1336 23.7672V21.6897C12.1299 21.4851 12.213 21.2877 12.3644 21.1419C12.5159 20.996 12.7228 20.9138 12.9388 20.9139H17.1034C17.5481 20.9139 17.9086 21.2553 17.9086 21.6765V27.1201C17.9162 28.7054 19.2751 29.9866 20.9488 29.9866H23.7252C27.183 29.9866 29.9861 27.3316 29.9861 24.0565L30 11.9989Z" fill="white"/>
</svg>
