<svg width="30" height="30" viewBox="0 0 30 30" fill="none" xmlns="http://www.w3.org/2000/svg">
<path d="M12.6467 27.607H6.26087C4.19168 27.5998 2.514 26.0166 2.4988 24.0568V12.0255C2.50286 11.3694 2.81281 10.7486 3.34561 10.3293L4.47007 9.54037C4.88058 9.1261 4.92232 8.49395 4.56951 8.03446C4.21669 7.57496 3.5689 7.41781 3.02632 7.66008L1.8741 8.47531C0.711819 9.32712 0.0220874 10.6337 0 12.0255V24.0699C0.00763454 27.342 2.80625 29.9928 6.26087 30.0001H12.6467C13.3367 30.0001 13.8961 29.4702 13.8961 28.8167C13.8961 28.1631 13.3367 27.6333 12.6467 27.6333V27.607Z" fill="#FEFEFF"/>
<path d="M30.0001 11.9989C29.9855 10.6173 29.3182 9.31463 28.1815 8.44872L18.5889 1.20368C16.481 -0.401226 13.4781 -0.401226 11.3702 1.20368L8.32999 3.29435C7.7588 3.68286 7.62828 4.4364 8.03846 4.97741C8.44864 5.51842 9.2442 5.64205 9.81538 5.25354L12.8972 3.07082C14.1069 2.12757 15.8523 2.12757 17.0619 3.07082L26.6545 10.3159C27.2066 10.7304 27.5328 11.358 27.5429 12.0252V24.0696C27.5429 26.0303 25.8648 27.6198 23.7948 27.6198H20.9489C20.6576 27.6198 20.4214 27.3961 20.4214 27.1201V21.6897C20.4214 19.9592 18.9444 18.5543 17.1174 18.5471H12.9528C12.0728 18.5471 11.2289 18.8782 10.6067 19.4675C9.98447 20.0569 9.63491 20.8562 9.63491 21.6897V23.7672C9.63491 24.4207 10.1943 24.9506 10.8843 24.9506C11.5743 24.9506 12.1337 24.4207 12.1337 23.7672V21.6897C12.13 21.4851 12.2132 21.2877 12.3646 21.1419C12.516 20.996 12.7229 20.9138 12.9389 20.9139H17.1035C17.5482 20.9139 17.9087 21.2553 17.9087 21.6765V27.1201C17.9163 28.7054 19.2753 29.9866 20.9489 29.9866H23.7253C27.1831 29.9866 29.9862 27.3316 29.9862 24.0565L30.0001 11.9989Z" fill="#FEFEFF"/>
</svg>
