<svg width="31" height="31" viewBox="0 0 31 31" fill="none" xmlns="http://www.w3.org/2000/svg">
<path d="M9.28589 25.4545C9.28589 25.4545 9.28589 29.9999 15.5964 29.9999C21.9068 29.9999 21.9068 25.4545 21.9068 25.4545" stroke="#7B7878" stroke-width="2" stroke-linejoin="round"/>
<path d="M5.13655 9.85335L1.66619 22.942C1.32972 24.211 2.28651 25.4546 3.59939 25.4546H9.28571H21.7143H27.4006C28.7135 25.4546 29.6703 24.211 29.3338 22.942L25.8634 9.85335C25.8592 9.8375 25.8551 9.82266 25.8503 9.807C25.7141 9.36979 23.513 2.72729 15.5 2.72729C7.48697 2.72729 5.28593 9.3698 5.14973 9.807C5.14486 9.82266 5.14075 9.8375 5.13655 9.85335Z" stroke="#7B7878" stroke-width="2" stroke-linejoin="round"/>
<ellipse cx="25.65" cy="4.09091" rx="4.35" ry="4.09091" fill="#202852"/>
</svg>
