<svg width="49" height="45" viewBox="0 0 49 45" fill="none" xmlns="http://www.w3.org/2000/svg">
<path d="M24.5 26.6161C24.1417 26.6161 23.7897 26.5296 23.4792 26.3653L5.10418 16.6204C4.12747 16.1023 3.793 14.9552 4.35715 14.0582C4.53633 13.7733 4.79397 13.5367 5.10418 13.3721L23.4792 3.63459C24.1114 3.30133 24.8887 3.30133 25.5208 3.63459L43.8958 13.3721C44.8726 13.8902 45.207 15.0374 44.6429 15.9344C44.4637 16.2193 44.2061 16.4559 43.8958 16.6204L25.5208 26.3653C25.2104 26.5296 24.8583 26.6161 24.5 26.6161Z" fill="#00B4D8"/>
<path d="M43.8958 20.8721L39.8858 18.7471L25.5208 26.3653C24.889 26.6998 24.111 26.6998 23.4792 26.3653L9.11424 18.7471L5.10418 20.8721C4.12747 21.3902 3.793 22.5374 4.35715 23.4344C4.53633 23.7193 4.79397 23.9559 5.10418 24.1204L23.4792 33.8653C24.111 34.1998 24.889 34.1998 25.5208 33.8653L43.8958 24.1204C44.8726 23.6023 45.207 22.4552 44.6429 21.5582C44.4637 21.2733 44.2061 21.0367 43.8958 20.8721Z" fill="#0077B6"/>
<path d="M43.8958 28.3721L39.8858 26.2471L25.5208 33.8653C24.889 34.1998 24.111 34.1998 23.4792 33.8653L9.11424 26.2471L5.10418 28.3721C4.12747 28.8902 3.793 30.0374 4.35715 30.9344C4.53633 31.2193 4.79397 31.4559 5.10418 31.6204L23.4792 41.3653C24.111 41.6998 24.889 41.6998 25.5208 41.3653L43.8958 31.6204C44.8726 31.1023 45.207 29.9552 44.6429 29.0582C44.4637 28.7733 44.2061 28.5367 43.8958 28.3721Z" fill="#03045E"/>
</svg>
