<svg width="27" height="27" viewBox="0 0 27 27" fill="none" xmlns="http://www.w3.org/2000/svg">
<path d="M13.5 7.875C13.945 7.875 14.38 7.74304 14.75 7.49581C15.12 7.24857 15.4084 6.89717 15.5787 6.48604C15.749 6.07491 15.7936 5.62251 15.7068 5.18605C15.62 4.74959 15.4057 4.34868 15.091 4.03401C14.7763 3.71934 14.3754 3.50505 13.939 3.41823C13.5025 3.33142 13.0501 3.37597 12.639 3.54627C12.2278 3.71657 11.8764 4.00496 11.6292 4.37497C11.382 4.74498 11.25 5.17999 11.25 5.625C11.25 6.22174 11.4871 6.79403 11.909 7.21599C12.331 7.63795 12.9033 7.875 13.5 7.875ZM13.5 19.125C13.055 19.125 12.62 19.257 12.25 19.5042C11.88 19.7514 11.5916 20.1028 11.4213 20.514C11.251 20.9251 11.2064 21.3775 11.2932 21.814C11.3801 22.2504 11.5943 22.6513 11.909 22.966C12.2237 23.2807 12.6246 23.495 13.061 23.5818C13.4975 23.6686 13.9499 23.624 14.361 23.4537C14.7722 23.2834 15.1236 22.995 15.3708 22.625C15.618 22.255 15.75 21.82 15.75 21.375C15.75 20.7783 15.5129 20.206 15.091 19.784C14.669 19.3621 14.0967 19.125 13.5 19.125ZM13.5 11.25C13.055 11.25 12.62 11.382 12.25 11.6292C11.88 11.8764 11.5916 12.2278 11.4213 12.639C11.251 13.0501 11.2064 13.5025 11.2932 13.939C11.3801 14.3754 11.5943 14.7763 11.909 15.091C12.2237 15.4057 12.6246 15.62 13.061 15.7068C13.4975 15.7936 13.9499 15.749 14.361 15.5787C14.7722 15.4084 15.1236 15.12 15.3708 14.75C15.618 14.38 15.75 13.945 15.75 13.5C15.75 12.9033 15.5129 12.331 15.091 11.909C14.669 11.4871 14.0967 11.25 13.5 11.25Z" fill="#7B7878"/>
</svg>
