<svg width="36" height="30" viewBox="0 0 36 30" fill="none" xmlns="http://www.w3.org/2000/svg">
<path d="M18 0C14.8403 8.62881e-05 11.7363 0.894265 8.99993 2.59266C6.26358 4.29106 3.99131 6.73384 2.41149 9.67548C0.831673 12.6171 -2.00675e-05 15.954 3.63152e-10 19.3507C2.00682e-05 22.7473 0.831753 26.0842 2.4116 29.0258C2.6503 29.4723 3.04422 29.7986 3.5067 29.9328C3.96917 30.0671 4.46233 29.9984 4.87767 29.7418C5.29301 29.4852 5.59651 29.0617 5.72141 28.5645C5.84631 28.0674 5.78238 27.5372 5.54368 27.0907C4.26825 24.7418 3.59727 22.0703 3.59963 19.3505C3.60049 16.9766 4.10923 14.6346 5.08652 12.5058C6.0638 10.377 7.48344 8.51826 9.23566 7.07342C10.9879 5.62859 13.0258 4.63632 15.1917 4.17336C17.3576 3.7104 19.5936 3.78914 21.7267 4.4035C23.8598 5.01785 25.8329 6.15136 27.4934 7.71638C29.1539 9.2814 30.4573 11.236 31.3029 13.429C32.1485 15.6221 32.5135 17.9948 32.3699 20.3637C32.2262 22.7326 31.5776 25.0343 30.4743 27.0907C30.3553 27.3116 30.2781 27.5556 30.2472 27.8087C30.2162 28.0617 30.2322 28.3189 30.2941 28.5653C30.356 28.8117 30.4626 29.0425 30.6079 29.2444C30.7531 29.4463 30.9341 29.6154 31.1403 29.7418C31.5537 29.9941 32.043 30.0604 32.5016 29.9262C32.9603 29.7921 33.3509 29.4684 33.5884 29.0258C35.1682 26.0842 36 22.7473 36 19.3507C36 15.954 35.1683 12.6171 33.5885 9.67548C32.0087 6.73384 29.7364 4.29106 27.0001 2.59266C24.2637 0.894265 21.1597 8.62881e-05 18 0ZM23.1121 11.1459L20.3221 14.1259C19.5998 13.7431 18.8052 13.5444 18 13.5454C16.932 13.5454 15.8879 13.8858 14.9998 14.5237C14.1118 15.1616 13.4196 16.0682 13.0109 17.129C12.6022 18.1898 12.4953 19.357 12.7036 20.4831C12.912 21.6092 13.4263 22.6435 14.1815 23.4554C14.9367 24.2673 15.899 24.8202 16.9465 25.0442C17.994 25.2681 19.0798 25.1532 20.0665 24.7138C21.0533 24.2744 21.8967 23.5304 22.49 22.5757C23.0834 21.6211 23.4001 20.4987 23.4001 19.3505C23.3989 18.4914 23.2141 17.644 22.8601 16.8737L25.6502 13.8937C25.8189 13.7138 25.9528 13.4998 26.0442 13.264C26.1356 13.0282 26.1826 12.7752 26.1826 12.5198C26.1826 12.2643 26.1356 12.0114 26.0442 11.7756C25.9528 11.5398 25.8189 11.3258 25.6502 11.1459C25.3129 10.7855 24.8567 10.5832 24.3812 10.5832C23.9056 10.5832 23.4494 10.7855 23.1121 11.1459ZM18 21.2856C17.5226 21.2856 17.0647 21.0817 16.7272 20.7188C16.3896 20.3559 16.2 19.8637 16.2 19.3505C16.2 18.8373 16.3896 18.3451 16.7272 17.9822C17.0647 17.6194 17.5226 17.4155 18 17.4155C18.4697 17.4124 18.9219 17.6069 19.26 17.9573C19.4323 18.1388 19.5688 18.3556 19.6616 18.595C19.7544 18.8343 19.8015 19.0913 19.8 19.3505C19.8 19.8637 19.6104 20.3559 19.2728 20.7188C18.9352 21.0817 18.4774 21.2856 18 21.2856Z" fill="#03045E"/>
</svg>
